<?xml version="1.0" standalone="no"?>
<!DOCTYPE svg PUBLIC "-//W3C//DTD SVG 20010904//EN"
 "http://www.w3.org/TR/2001/REC-SVG-20010904/DTD/svg10.dtd">
<svg version="1.0" xmlns="http://www.w3.org/2000/svg"
 width="512.000000pt" height="512.000000pt" viewBox="0 0 512.000000 512.000000"
 preserveAspectRatio="xMidYMid meet">
<metadata>
Created by potrace 1.14, written by Peter Selinger 2001-2017
</metadata>
<g transform="translate(0.000000,512.000000) scale(0.100000,-0.100000)"
fill="#000000" stroke="none">
<path d="M2379 5116 c-2 -2 -40 -6 -83 -10 -44 -4 -82 -8 -85 -10 -3 -2 -31
-7 -61 -11 -30 -3 -75 -11 -100 -17 -25 -5 -56 -12 -70 -14 -179 -34 -475
-150 -677 -264 -293 -166 -508 -351 -760 -653 -44 -53 -170 -244 -219 -332
-132 -238 -223 -485 -273 -740 -40 -200 -46 -267 -45 -515 0 -183 3 -241 19
-345 3 -16 7 -43 9 -60 31 -220 147 -571 253 -763 87 -159 185 -311 259 -402
241 -296 506 -518 819 -684 228 -122 538 -225 781 -261 22 -4 50 -8 64 -11
144 -26 531 -26 708 1 75 12 90 14 142 25 30 6 66 13 80 16 111 21 368 110
505 175 714 338 1233 981 1409 1746 31 135 36 165 53 318 10 91 10 408 1 505
-9 84 -22 171 -37 245 -6 28 -13 61 -15 75 -55 276 -217 639 -401 900 -414
583 -1032 963 -1735 1065 -19 3 -53 7 -75 11 -44 6 -460 15 -466 10z m262
-973 c0 -10 1 -155 1 -322 0 -276 2 -305 18 -321 16 -16 45 -18 321 -18 167 0
312 -1 322 -1 16 -1 17 -22 17 -295 l0 -294 -482 -482 -482 -481 -48 -237
c-27 -130 -46 -247 -43 -259 8 -34 61 -40 160 -17 8 2 73 14 150 28 11 2 65
12 120 22 l100 18 260 259 260 258 3 -473 c3 -434 1 -476 -15 -506 -34 -66 34
-62 -1133 -62 -1169 0 -1111 -3 -1142 61 -12 24 -14 258 -14 1546 1 1502 1
1518 21 1545 11 15 29 31 40 37 13 6 301 10 793 10 729 1 772 0 773 -16z m344
-323 l229 -230 -232 0 -232 0 0 230 c0 127 1 230 3 230 1 0 106 -103 232 -230z
m1021 -615 c93 -55 124 -171 73 -270 -45 -86 -42 -87 -204 75 -157 157 -150
143 -92 189 56 44 153 47 223 6z m-204 -272 c76 -76 138 -142 138 -146 0 -11
-52 -67 -62 -67 -8 0 -288 279 -288 286 0 10 55 63 65 64 5 0 72 -62 147 -137z
m-147 -149 l146 -145 -511 -511 -511 -511 -68 69 c-37 38 -102 104 -145 146
l-77 77 508 510 c279 280 509 510 510 510 1 1 68 -65 148 -145z m-1096 -1096
c61 -61 110 -113 108 -115 -5 -4 -254 -53 -272 -53 -9 0 -7 28 12 118 13 64
25 126 28 137 5 26 4 25 9 25 2 0 54 -50 115 -112z"/>
<path d="M1274 3659 c-22 -25 -11 -67 21 -79 15 -6 264 -9 595 -9 563 0 570 0
589 20 22 24 20 58 -4 75 -12 9 -178 12 -600 12 -557 0 -584 -1 -601 -19z"/>
<path d="M1290 3206 c-30 -14 -37 -54 -13 -78 19 -19 37 -19 893 -19 826 -1
875 0 887 17 18 24 16 59 -3 75 -13 11 -174 13 -880 14 -500 0 -872 -4 -884
-9z"/>
<path d="M1274 2725 c-19 -29 -11 -63 19 -74 12 -5 413 -8 890 -7 944 1 886
-2 887 55 0 52 30 50 -907 51 l-873 0 -16 -25z"/>
<path d="M1278 2268 c-23 -23 -23 -51 1 -72 18 -17 60 -18 581 -17 308 0 569
3 579 6 21 6 34 44 25 69 -3 8 -16 19 -27 23 -12 4 -274 7 -582 8 -521 0 -561
-1 -577 -17z"/>
<path d="M1275 1800 c-22 -25 -13 -68 18 -79 12 -5 214 -8 448 -7 456 1 459 1
459 51 0 12 -8 29 -18 38 -17 15 -63 17 -454 17 -419 0 -436 -1 -453 -20z"/>
</g>
</svg>
